<svg version="1.1" xmlns="http://www.w3.org/2000/svg" xmlns:xlink="http://www.w3.org/1999/xlink" width="1653" height="1566"><defs/><g><g/><g/><g/><g/><g/><g/><g/><g/><g/><g/><g/><g/><g/><g/><g/><g/><g/><g/><g/><g/><g/><g/><g/><g/><g/><g/><g/><g><rect fill="white" stroke="none" x="0" y="0" width="1653" height="1566"/></g><g><text fill="black" stroke="none" font-family="sans-serif" font-size="16.5pt" font-style="normal" font-weight="normal" text-decoration="normal" x="743.0854870069008" y="24.50280495" text-anchor="start" dominant-baseline="alphabetic" xml:space="preserve">Calculating "2+3"</text></g><g/><g><path fill="none" stroke="black" paint-order="fill stroke markers" d=" M 41.36103142239453 95.887643371 L 41.36103142239453 1566.872700536" stroke-miterlimit="10" stroke-width="1.3612669416666667" stroke-dasharray="12.565541,5.445067766666667"/><path fill="none" stroke="black" paint-order="fill stroke markers" d=" M 228.29350565006376 95.887643371 L 228.29350565006376 1566.872700536" stroke-miterlimit="10" stroke-width="1.3612669416666667" stroke-dasharray="12.565541,5.445067766666667"/><path fill="none" stroke="black" paint-order="fill stroke markers" d=" M 502.39790035774604 95.887643371 L 502.39790035774604 1566.872700536" stroke-miterlimit="10" stroke-width="1.3612669416666667" stroke-dasharray="12.565541,5.445067766666667"/><path fill="none" stroke="black" paint-order="fill stroke markers" d=" M 833.5489194355442 266.91722192199995 L 833.5489194355442 1238.535114206" stroke-miterlimit="10" stroke-width="1.3612669416666667" stroke-dasharray="12.565541,5.445067766666667"/><path fill="none" stroke="black" paint-order="fill stroke markers" d=" M 959.51258497625 429.77919882299994 L 959.51258497625 1238.535114206" stroke-miterlimit="10" stroke-width="1.3612669416666667" stroke-dasharray="12.565541,5.445067766666667"/><path fill="none" stroke="black" paint-order="fill stroke markers" d=" M 1146.614371571138 546.902606484 L 1146.614371571138 1238.535114206" stroke-miterlimit="10" stroke-width="1.3612669416666667" stroke-dasharray="12.565541,5.445067766666667"/><path fill="none" stroke="black" paint-order="fill stroke markers" d=" M 1263.2655878583098 664.0260141449999 L 1263.2655878583098 1238.535114206" stroke-miterlimit="10" stroke-width="1.3612669416666667" stroke-dasharray="12.565541,5.445067766666667"/><path fill="none" stroke="black" paint-order="fill stroke markers" d=" M 1361.208140205052 918.3651295259997 L 1361.208140205052 1566.872700536" stroke-miterlimit="10" stroke-width="1.3612669416666667" stroke-dasharray="12.565541,5.445067766666667"/><path fill="none" stroke="black" paint-order="fill stroke markers" d=" M 1467.5781446391964 95.887643371 L 1467.5781446391964 1566.872700536" stroke-miterlimit="10" stroke-width="1.3612669416666667" stroke-dasharray="12.565541,5.445067766666667"/><path fill="none" stroke="black" paint-order="fill stroke markers" d=" M 1592.5029739024424 95.887643371 L 1592.5029739024424 1566.872700536" stroke-miterlimit="10" stroke-width="1.3612669416666667" stroke-dasharray="12.565541,5.445067766666667"/></g><g><path fill="none" stroke="none"/><g><path fill="white" stroke="black" paint-order="fill stroke markers" d=" M 8.167601650000002 51.782594461 L 74.55446119478907 51.782594461 L 74.55446119478907 95.887643371 L 8.167601650000002 95.887643371 L 8.167601650000002 51.782594461 Z" stroke-miterlimit="10" stroke-width="2.613632528" stroke-dasharray=""/></g><g><g/><text fill="black" stroke="none" font-family="sans-serif" font-size="11pt" font-style="normal" font-weight="normal" text-decoration="normal" x="25.8912972305" y="79.55244007099999" text-anchor="start" dominant-baseline="alphabetic" xml:space="preserve">User</text></g><path fill="none" stroke="none"/><g><path fill="white" stroke="black" paint-order="fill stroke markers" d=" M 147.24730030393874 51.782594461 L 309.3397109961887 51.782594461 L 309.3397109961887 95.887643371 L 147.24730030393874 95.887643371 L 147.24730030393874 51.782594461 Z" stroke-miterlimit="10" stroke-width="2.613632528" stroke-dasharray=""/></g><g><g/><text fill="black" stroke="none" font-family="sans-serif" font-size="11pt" font-style="normal" font-weight="normal" text-decoration="normal" x="164.97099588443876" y="79.55244007099999" text-anchor="start" dominant-baseline="alphabetic" xml:space="preserve">mainViewController</text></g><path fill="none" stroke="none"/><g><path fill="white" stroke="black" paint-order="fill stroke markers" d=" M 453.427004765039 51.782594461 L 551.3687959504531 51.782594461 L 551.3687959504531 95.887643371 L 453.427004765039 95.887643371 L 453.427004765039 51.782594461 Z" stroke-miterlimit="10" stroke-width="2.613632528" stroke-dasharray=""/></g><g><g/><text fill="black" stroke="none" font-family="sans-serif" font-size="11pt" font-style="normal" font-weight="normal" text-decoration="normal" x="471.150700345539" y="79.55244007099999" text-anchor="start" dominant-baseline="alphabetic" xml:space="preserve">calculator</text></g><path fill="none" stroke="none"/><g><path fill="white" stroke="black" paint-order="fill stroke markers" d=" M 1411.6894634019582 51.782594461 L 1523.4668258764348 51.782594461 L 1523.4668258764348 95.887643371 L 1411.6894634019582 95.887643371 L 1411.6894634019582 51.782594461 Z" stroke-miterlimit="10" stroke-width="2.613632528" stroke-dasharray=""/></g><g><g/><text fill="black" stroke="none" font-family="sans-serif" font-size="11pt" font-style="normal" font-weight="normal" text-decoration="normal" x="1429.413158982458" y="79.55244007099999" text-anchor="start" dominant-baseline="alphabetic" xml:space="preserve">sessionDao</text></g><path fill="none" stroke="none"/><g><path fill="white" stroke="black" paint-order="fill stroke markers" d=" M 1539.8020291764346 51.782594461 L 1645.2039186284503 51.782594461 L 1645.2039186284503 95.887643371 L 1539.8020291764346 95.887643371 L 1539.8020291764346 51.782594461 Z" stroke-miterlimit="10" stroke-width="2.613632528" stroke-dasharray=""/></g><g><g/><text fill="black" stroke="none" font-family="sans-serif" font-size="11pt" font-style="normal" font-weight="normal" text-decoration="normal" x="1557.5257247569346" y="79.55244007099999" text-anchor="start" dominant-baseline="alphabetic" xml:space="preserve">historyDao</text></g></g><g><path fill="white" stroke="black" paint-order="fill stroke markers" d=" M 220.12590400006377 149.793814261 L 236.46110730006376 149.793814261 L 236.46110730006376 1509.699488986 L 220.12590400006377 1509.699488986 L 220.12590400006377 149.793814261" stroke-miterlimit="10" stroke-width="1.3612669416666667" stroke-dasharray=""/><path fill="white" stroke="black" paint-order="fill stroke markers" d=" M 494.23029870774604 195.532383501 L 510.56550200774603 195.532383501 L 510.56550200774603 1238.535114206 L 494.23029870774604 1238.535114206 L 494.23029870774604 195.532383501" stroke-miterlimit="10" stroke-width="1.3612669416666667" stroke-dasharray=""/><path fill="white" stroke="black" paint-order="fill stroke markers" d=" M 825.3813177855442 266.91722192199995 L 841.7165210855443 266.91722192199995 L 841.7165210855443 266.91722192199995 L 825.3813177855442 266.91722192199995 L 825.3813177855442 266.91722192199995" stroke-miterlimit="10" stroke-width="1.3612669416666667" stroke-dasharray=""/><path fill="white" stroke="black" paint-order="fill stroke markers" d=" M 825.3813177855442 312.65579116199996 L 841.7165210855443 312.65579116199996 L 841.7165210855443 358.39436040199996 L 825.3813177855442 358.39436040199996 L 825.3813177855442 312.65579116199996" stroke-miterlimit="10" stroke-width="1.3612669416666667" stroke-dasharray=""/><path fill="white" stroke="black" paint-order="fill stroke markers" d=" M 951.3449833262499 429.77919882299994 L 967.68018662625 429.77919882299994 L 967.68018662625 429.77919882299994 L 951.3449833262499 429.77919882299994 L 951.3449833262499 429.77919882299994" stroke-miterlimit="10" stroke-width="1.3612669416666667" stroke-dasharray=""/><path fill="white" stroke="black" paint-order="fill stroke markers" d=" M 951.3449833262499 475.51776806299995 L 967.68018662625 475.51776806299995 L 967.68018662625 592.6411757239999 L 951.3449833262499 592.6411757239999 L 951.3449833262499 475.51776806299995" stroke-miterlimit="10" stroke-width="1.3612669416666667" stroke-dasharray=""/><path fill="white" stroke="black" paint-order="fill stroke markers" d=" M 1138.446769921138 546.902606484 L 1154.781973221138 546.902606484 L 1154.781973221138 546.902606484 L 1138.446769921138 546.902606484 L 1138.446769921138 546.902606484" stroke-miterlimit="10" stroke-width="1.3612669416666667" stroke-dasharray=""/><path fill="white" stroke="black" paint-order="fill stroke markers" d=" M 1255.0979862083097 664.0260141449999 L 1271.4331895083099 664.0260141449999 L 1271.4331895083099 664.0260141449999 L 1255.0979862083097 664.0260141449999 L 1255.0979862083097 664.0260141449999" stroke-miterlimit="10" stroke-width="1.3612669416666667" stroke-dasharray=""/><path fill="white" stroke="black" paint-order="fill stroke markers" d=" M 1138.446769921138 709.7645833849998 L 1154.781973221138 709.7645833849998 L 1154.781973221138 755.5031526249998 L 1138.446769921138 755.5031526249998 L 1138.446769921138 709.7645833849998" stroke-miterlimit="10" stroke-width="1.3612669416666667" stroke-dasharray=""/><path fill="white" stroke="black" paint-order="fill stroke markers" d=" M 1255.0979862083097 801.2417218649997 L 1271.4331895083099 801.2417218649997 L 1271.4331895083099 846.9802911049997 L 1255.0979862083097 846.9802911049997 L 1255.0979862083097 801.2417218649997" stroke-miterlimit="10" stroke-width="1.3612669416666667" stroke-dasharray=""/><path fill="white" stroke="black" paint-order="fill stroke markers" d=" M 1353.0405385550519 918.3651295259997 L 1369.375741855052 918.3651295259997 L 1369.375741855052 918.3651295259997 L 1353.0405385550519 918.3651295259997 L 1353.0405385550519 918.3651295259997" stroke-miterlimit="10" stroke-width="1.3612669416666667" stroke-dasharray=""/><path fill="white" stroke="black" paint-order="fill stroke markers" d=" M 1459.4105429891963 964.1036987659996 L 1475.7457462891964 964.1036987659996 L 1475.7457462891964 1009.8422680059996 L 1459.4105429891963 1009.8422680059996 L 1459.4105429891963 964.1036987659996" stroke-miterlimit="10" stroke-width="1.3612669416666667" stroke-dasharray=""/><path fill="white" stroke="black" paint-order="fill stroke markers" d=" M 1584.3353722524423 1055.5808372459996 L 1600.6705755524424 1055.5808372459996 L 1600.6705755524424 1101.3194064859997 L 1584.3353722524423 1101.3194064859997 L 1584.3353722524423 1055.5808372459996" stroke-miterlimit="10" stroke-width="1.3612669416666667" stroke-dasharray=""/><path fill="white" stroke="black" paint-order="fill stroke markers" d=" M 1255.0979862083097 1147.0579757259998 L 1271.4331895083099 1147.0579757259998 L 1271.4331895083099 1192.7965449659998 L 1255.0979862083097 1192.7965449659998 L 1255.0979862083097 1147.0579757259998" stroke-miterlimit="10" stroke-width="1.3612669416666667" stroke-dasharray=""/><path fill="white" stroke="black" paint-order="fill stroke markers" d=" M 494.23029870774604 1284.273683446 L 510.56550200774603 1284.273683446 L 510.56550200774603 1330.012252686 L 494.23029870774604 1330.012252686 L 494.23029870774604 1284.273683446" stroke-miterlimit="10" stroke-width="1.3612669416666667" stroke-dasharray=""/><path fill="white" stroke="black" paint-order="fill stroke markers" d=" M 228.29350565006376 1396.986586216 L 244.62870895006375 1396.986586216 L 244.62870895006375 1396.986586216 L 228.29350565006376 1396.986586216 L 228.29350565006376 1396.986586216" stroke-miterlimit="10" stroke-width="1.3612669416666667" stroke-dasharray=""/><path fill="white" stroke="black" paint-order="fill stroke markers" d=" M 228.29350565006376 1463.960919746 L 244.62870895006375 1463.960919746 L 244.62870895006375 1463.960919746 L 228.29350565006376 1463.960919746 L 228.29350565006376 1463.960919746" stroke-miterlimit="10" stroke-width="1.3612669416666667" stroke-dasharray=""/><g><g><rect fill="white" stroke="none" x="60.69102199406116" y="128.558049971" width="140.10489143433594" height="21.23576429"/></g><text fill="black" stroke="none" font-family="sans-serif" font-size="11pt" font-style="normal" font-weight="normal" text-decoration="normal" x="63.14130248906116" y="143.259732941" text-anchor="start" dominant-baseline="alphabetic" xml:space="preserve">click calculate button</text></g><g><path fill="none" stroke="black" paint-order="fill stroke markers" d=" M 41.36103142239453 149.793814261 L 217.40337011673043 149.793814261" stroke-miterlimit="10" stroke-width="1.3612669416666667" stroke-dasharray=""/><g transform="translate(220.12590400006377,149.793814261) translate(-220.12590400006377,-149.793814261)"><path fill="black" stroke="none" paint-order="stroke fill markers" d=" M 206.5132345833971 142.98747955266666 L 220.12590400006377 149.793814261 L 206.5132345833971 156.60014896933333 Z"/></g></g><g><g><rect fill="white" stroke="none" x="311.5910630728697" y="174.296619211" width="107.50927986207031" height="21.23576429"/></g><text fill="black" stroke="none" font-family="sans-serif" font-size="11pt" font-style="normal" font-weight="normal" text-decoration="normal" x="314.0413435678697" y="188.99830218099999" text-anchor="start" dominant-baseline="alphabetic" xml:space="preserve">calculate("2+3")</text></g><g><path fill="none" stroke="black" paint-order="fill stroke markers" d=" M 236.46110730006376 195.532383501 L 491.50776482441273 195.532383501" stroke-miterlimit="10" stroke-width="1.3612669416666667" stroke-dasharray=""/><g transform="translate(494.23029870774604,195.532383501) translate(-494.23029870774604,-195.532383501)"><path fill="black" stroke="none" paint-order="stroke fill markers" d=" M 480.61762929107937 188.72604879266666 L 494.23029870774604 195.532383501 L 480.61762929107937 202.33871820933334 Z"/></g></g><path fill="none" stroke="none"/><g><path fill="white" stroke="black" paint-order="fill stroke markers" d=" M 800.3555964746731 221.42368073149993 L 866.7422423964153 221.42368073149993 L 866.7422423964153 265.5287296414999 L 800.3555964746731 265.5287296414999 L 800.3555964746731 221.42368073149993 Z" stroke-miterlimit="10" stroke-width="2.613632528" stroke-dasharray=""/></g><g><g/><text fill="black" stroke="none" font-family="sans-serif" font-size="11pt" font-style="normal" font-weight="normal" text-decoration="normal" x="818.0792920551731" y="249.19352634149996" text-anchor="start" dominant-baseline="alphabetic" xml:space="preserve">lexer</text></g><g><g><rect fill="white" stroke="none" x="533.9792934044127" y="222.24044089649996" width="242.96251167359375" height="21.23576429"/></g><text fill="black" stroke="none" font-family="sans-serif" font-size="11pt" font-style="normal" font-weight="normal" text-decoration="normal" x="536.4295738994127" y="236.94212386649994" text-anchor="start" dominant-baseline="alphabetic" xml:space="preserve">new Lexer(new StringReader("2+3"))</text></g><g><path fill="none" stroke="black" paint-order="fill stroke markers" d=" M 510.56550200774603 243.47620518649995 L 797.6330625913398 243.47620518649995" stroke-miterlimit="10" stroke-width="1.3612669416666667" stroke-dasharray=""/><g transform="translate(800.3555964746731,243.47620518649995) translate(-800.3555964746731,-243.47620518649995)"><path fill="black" stroke="none" paint-order="stroke fill markers" d=" M 786.7429270580064 236.66987047816662 L 800.3555964746731 243.47620518649995 L 786.7429270580064 250.2825398948333 Z"/></g></g><g><g><rect fill="white" stroke="none" x="651.4897660593599" y="291.42002687199994" width="32.967287674570315" height="21.23576429"/></g><text fill="black" stroke="none" font-family="sans-serif" font-size="11pt" font-style="normal" font-weight="normal" text-decoration="normal" x="653.9400465543599" y="306.1217098419999" text-anchor="start" dominant-baseline="alphabetic" xml:space="preserve">lex()</text></g><g><path fill="none" stroke="black" paint-order="fill stroke markers" d=" M 510.56550200774603 312.65579116199996 L 822.6587839022109 312.65579116199996" stroke-miterlimit="10" stroke-width="1.3612669416666667" stroke-dasharray=""/><g transform="translate(825.3813177855442,312.65579116199996) translate(-825.3813177855442,-312.65579116199996)"><path fill="black" stroke="none" paint-order="stroke fill markers" d=" M 811.7686483688775 305.8494564536666 L 825.3813177855442 312.65579116199996 L 811.7686483688775 319.4621258703333 Z"/></g></g><g><g><rect fill="white" stroke="none" x="638.6802186350435" y="337.15859611199994" width="58.58638252320313" height="21.23576429"/></g><text fill="black" stroke="none" font-family="sans-serif" font-size="11pt" font-style="normal" font-weight="normal" text-decoration="normal" x="641.1304991300435" y="351.8602790819999" text-anchor="start" dominant-baseline="alphabetic" xml:space="preserve">lexemes</text></g><g><path fill="none" stroke="black" paint-order="fill stroke markers" d=" M 825.3813177855442 358.39436040199996 L 513.2880358910794 358.39436040199996" stroke-miterlimit="10" stroke-width="1.3612669416666667" stroke-dasharray="6.53408132"/><g transform="translate(510.56550200774603,358.39436040199996) translate(-510.56550200774603,-358.39436040199996)"><path fill="black" stroke="none" paint-order="stroke fill markers" d=" M 524.1781714244127 351.5880256936666 L 510.56550200774603 358.39436040199996 L 524.1781714244127 365.2006951103333 Z"/></g></g><path fill="none" stroke="none"/><g><path fill="white" stroke="black" paint-order="fill stroke markers" d=" M 920.9842476721171 384.2856576325 L 998.0409222803828 384.2856576325 L 998.0409222803828 428.39070654249997 L 920.9842476721171 428.39070654249997 L 920.9842476721171 384.2856576325 Z" stroke-miterlimit="10" stroke-width="2.613632528" stroke-dasharray=""/></g><g><g/><text fill="black" stroke="none" font-family="sans-serif" font-size="11pt" font-style="normal" font-weight="normal" text-decoration="normal" x="938.7079432526172" y="412.0555032425" text-anchor="start" dominant-baseline="alphabetic" xml:space="preserve">parser</text></g><g><g><rect fill="white" stroke="none" x="644.7405718229589" y="385.1024177974999" width="142.06860603394531" height="21.23576429"/></g><text fill="black" stroke="none" font-family="sans-serif" font-size="11pt" font-style="normal" font-weight="normal" text-decoration="normal" x="647.190852317959" y="399.8041007674999" text-anchor="start" dominant-baseline="alphabetic" xml:space="preserve">new Parser(lexemes)</text></g><g><path fill="none" stroke="black" paint-order="fill stroke markers" d=" M 510.56550200774603 406.33818208749994 L 918.2617137887838 406.33818208749994" stroke-miterlimit="10" stroke-width="1.3612669416666667" stroke-dasharray=""/><g transform="translate(920.9842476721171,406.33818208749994) translate(-920.9842476721171,-406.33818208749994)"><path fill="black" stroke="none" paint-order="stroke fill markers" d=" M 907.3715782554505 399.5318473791666 L 920.9842476721171 406.33818208749994 L 907.3715782554505 413.1445167958333 Z"/></g></g><g><g><rect fill="white" stroke="none" x="669.1029617447518" y="454.28200377299993" width="123.70456184449219" height="21.23576429"/></g><text fill="black" stroke="none" font-family="sans-serif" font-size="11pt" font-style="normal" font-weight="normal" text-decoration="normal" x="671.5532422397519" y="468.9836867429999" text-anchor="start" dominant-baseline="alphabetic" xml:space="preserve">parseExpression()</text></g><g><path fill="none" stroke="black" paint-order="fill stroke markers" d=" M 510.56550200774603 475.51776806299995 L 948.6224494429166 475.51776806299995" stroke-miterlimit="10" stroke-width="1.3612669416666667" stroke-dasharray=""/><g transform="translate(951.3449833262499,475.51776806299995) translate(-951.3449833262499,-475.51776806299995)"><path fill="black" stroke="none" paint-order="stroke fill markers" d=" M 937.7323139095832 468.7114333546666 L 951.3449833262499 475.51776806299995 L 937.7323139095832 482.3241027713333 Z"/></g></g><path fill="none" stroke="none"/><g><path fill="white" stroke="black" paint-order="fill stroke markers" d=" M 1093.7595877338022 501.4090652935001 L 1199.469155408474 501.4090652935001 L 1199.469155408474 545.5141142035001 L 1093.7595877338022 545.5141142035001 L 1093.7595877338022 501.4090652935001 Z" stroke-miterlimit="10" stroke-width="2.613632528" stroke-dasharray=""/></g><g><g/><text fill="black" stroke="none" font-family="sans-serif" font-size="11pt" font-style="normal" font-weight="normal" text-decoration="normal" x="1111.483283314302" y="529.1789109035" text-anchor="start" dominant-baseline="alphabetic" xml:space="preserve">expression</text></g><g><g><rect fill="white" stroke="none" x="991.0939780229166" y="502.2258254585" width="79.25181831421875" height="21.23576429"/></g><text fill="black" stroke="none" font-family="sans-serif" font-size="11pt" font-style="normal" font-weight="normal" text-decoration="normal" x="993.5442585179167" y="516.9275084285" text-anchor="start" dominant-baseline="alphabetic" xml:space="preserve">&lt;&lt;create&gt;&gt;</text></g><g><path fill="none" stroke="black" paint-order="fill stroke markers" d=" M 967.68018662625 523.4615897485 L 1091.0370538504687 523.4615897485" stroke-miterlimit="10" stroke-width="1.3612669416666667" stroke-dasharray=""/><g transform="translate(1093.7595877338022,523.4615897485) translate(-1093.7595877338022,-523.4615897485)"><path fill="black" stroke="none" paint-order="stroke fill markers" d=" M 1080.1469183171355 516.6552550401667 L 1093.7595877338022 523.4615897485 L 1080.1469183171355 530.2679244568334 Z"/></g></g><g><g><rect fill="white" stroke="none" x="693.373873915162" y="571.4054114339999" width="75.16273750367188" height="21.23576429"/></g><text fill="black" stroke="none" font-family="sans-serif" font-size="11pt" font-style="normal" font-weight="normal" text-decoration="normal" x="695.824154410162" y="586.1070944039999" text-anchor="start" dominant-baseline="alphabetic" xml:space="preserve">expression</text></g><g><path fill="none" stroke="black" paint-order="fill stroke markers" d=" M 951.3449833262499 592.6411757239999 L 513.2880358910794 592.6411757239999" stroke-miterlimit="10" stroke-width="1.3612669416666667" stroke-dasharray="6.53408132"/><g transform="translate(510.56550200774603,592.6411757239999) translate(-510.56550200774603,-592.6411757239999)"><path fill="black" stroke="none" paint-order="stroke fill markers" d=" M 524.1781714244127 585.8348410156666 L 510.56550200774603 592.6411757239999 L 524.1781714244127 599.4475104323333 Z"/></g></g><path fill="none" stroke="none"/><g><path fill="white" stroke="black" paint-order="fill stroke markers" d=" M 1215.804358708474 618.5324729544998 L 1310.7268170081459 618.5324729544998 L 1310.7268170081459 662.6375218644998 L 1215.804358708474 662.6375218644998 L 1215.804358708474 618.5324729544998 Z" stroke-miterlimit="10" stroke-width="2.613632528" stroke-dasharray=""/></g><g><g/><text fill="black" stroke="none" font-family="sans-serif" font-size="11pt" font-style="normal" font-weight="normal" text-decoration="normal" x="1233.5280542889739" y="646.3023185644998" text-anchor="start" dominant-baseline="alphabetic" xml:space="preserve">evaluator</text></g><g><g><rect fill="white" stroke="none" x="757.4885637425045" y="619.3492331194999" width="211.39273323121094" height="21.23576429"/></g><text fill="black" stroke="none" font-family="sans-serif" font-size="11pt" font-style="normal" font-weight="normal" text-decoration="normal" x="759.9388442375046" y="634.0509160894999" text-anchor="start" dominant-baseline="alphabetic" xml:space="preserve">new Evaluator(0, namedValues)</text></g><g><path fill="none" stroke="black" paint-order="fill stroke markers" d=" M 510.56550200774603 640.5849974094999 L 1213.0818248251405 640.5849974094999" stroke-miterlimit="10" stroke-width="1.3612669416666667" stroke-dasharray=""/><g transform="translate(1215.804358708474,640.5849974094999) translate(-1215.804358708474,-640.5849974094999)"><path fill="black" stroke="none" paint-order="stroke fill markers" d=" M 1202.1916892918073 633.7786627011666 L 1215.804358708474 640.5849974094999 L 1202.1916892918073 647.3913321178333 Z"/></g></g><g><g><rect fill="white" stroke="none" x="765.7464148566489" y="688.5288190949998" width="117.51944221558594" height="21.23576429"/></g><text fill="black" stroke="none" font-family="sans-serif" font-size="11pt" font-style="normal" font-weight="normal" text-decoration="normal" x="768.1966953516489" y="703.2305020649998" text-anchor="start" dominant-baseline="alphabetic" xml:space="preserve">accept(evaluator)</text></g><g><path fill="none" stroke="black" paint-order="fill stroke markers" d=" M 510.56550200774603 709.7645833849998 L 1135.7242360378045 709.7645833849998" stroke-miterlimit="10" stroke-width="1.3612669416666667" stroke-dasharray=""/><g transform="translate(1138.446769921138,709.7645833849998) translate(-1138.446769921138,-709.7645833849998)"><path fill="black" stroke="none" paint-order="stroke fill markers" d=" M 1124.8341005044713 702.9582486766665 L 1138.446769921138 709.7645833849998 L 1124.8341005044713 716.5709180933331 Z"/></g></g><g><g><rect fill="white" stroke="none" x="822.0558554694419" y="734.2673883349997" width="4.90056099" height="21.23576429"/></g><text fill="black" stroke="none" font-family="sans-serif" font-size="11pt" font-style="normal" font-weight="normal" text-decoration="normal" x="824.5061359644419" y="748.9690713049997" text-anchor="start" dominant-baseline="alphabetic" xml:space="preserve"></text></g><g><path fill="none" stroke="black" paint-order="fill stroke markers" d=" M 1138.446769921138 755.5031526249998 L 513.2880358910794 755.5031526249998" stroke-miterlimit="10" stroke-width="1.3612669416666667" stroke-dasharray="6.53408132"/><g transform="translate(510.56550200774603,755.5031526249998) translate(-510.56550200774603,-755.5031526249998)"><path fill="black" stroke="none" paint-order="stroke fill markers" d=" M 524.1781714244127 748.6968179166664 L 510.56550200774603 755.5031526249998 L 524.1781714244127 762.3094873333331 Z"/></g></g><g><g><rect fill="white" stroke="none" x="847.1044479269926" y="780.0059575749997" width="71.45459236207031" height="21.23576429"/></g><text fill="black" stroke="none" font-family="sans-serif" font-size="11pt" font-style="normal" font-weight="normal" text-decoration="normal" x="849.5547284219926" y="794.7076405449997" text-anchor="start" dominant-baseline="alphabetic" xml:space="preserve">getValue()</text></g><g><path fill="none" stroke="black" paint-order="fill stroke markers" d=" M 510.56550200774603 801.2417218649997 L 1252.3754523249763 801.2417218649997" stroke-miterlimit="10" stroke-width="1.3612669416666667" stroke-dasharray=""/><g transform="translate(1255.0979862083097,801.2417218649997) translate(-1255.0979862083097,-801.2417218649997)"><path fill="black" stroke="none" paint-order="stroke fill markers" d=" M 1241.485316791643 794.4353871566664 L 1255.0979862083097 801.2417218649997 L 1241.485316791643 808.048056573333 Z"/></g></g><g><g><rect fill="white" stroke="none" x="870.1953292746489" y="825.7445268149996" width="25.27282966675781" height="21.23576429"/></g><text fill="black" stroke="none" font-family="sans-serif" font-size="11pt" font-style="normal" font-weight="normal" text-decoration="normal" x="872.6456097696489" y="840.4462097849996" text-anchor="start" dominant-baseline="alphabetic" xml:space="preserve">5.0</text></g><g><path fill="none" stroke="black" paint-order="fill stroke markers" d=" M 1255.0979862083097 846.9802911049997 L 513.2880358910794 846.9802911049997" stroke-miterlimit="10" stroke-width="1.3612669416666667" stroke-dasharray="6.53408132"/><g transform="translate(510.56550200774603,846.9802911049997) translate(-510.56550200774603,-846.9802911049997)"><path fill="black" stroke="none" paint-order="stroke fill markers" d=" M 524.1781714244127 840.1739563966663 L 510.56550200774603 846.9802911049997 L 524.1781714244127 853.786625813333 Z"/></g></g><path fill="none" stroke="none"/><g><path fill="white" stroke="black" paint-order="fill stroke markers" d=" M 1327.0620203081457 872.8715883354996 L 1395.3542601019583 872.8715883354996 L 1395.3542601019583 916.9766372454997 L 1327.0620203081457 916.9766372454997 L 1327.0620203081457 872.8715883354996 Z" stroke-miterlimit="10" stroke-width="2.613632528" stroke-dasharray=""/></g><g><g/><text fill="black" stroke="none" font-family="sans-serif" font-size="11pt" font-style="normal" font-weight="normal" text-decoration="normal" x="1344.7857158886457" y="900.6414339454997" text-anchor="start" dominant-baseline="alphabetic" xml:space="preserve">entry</text></g><g><g><rect fill="white" stroke="none" x="824.0873652454654" y="873.6883485004997" width="189.45279182496094" height="21.23576429"/></g><text fill="black" stroke="none" font-family="sans-serif" font-size="11pt" font-style="normal" font-weight="normal" text-decoration="normal" x="826.5376457404655" y="888.3900314704997" text-anchor="start" dominant-baseline="alphabetic" xml:space="preserve">new HistoryEntry("2+3", 5.0)</text></g><g><path fill="none" stroke="black" paint-order="fill stroke markers" d=" M 510.56550200774603 894.9241127904997 L 1324.3394864248123 894.9241127904997" stroke-miterlimit="10" stroke-width="1.3612669416666667" stroke-dasharray=""/><g transform="translate(1327.0620203081457,894.9241127904997) translate(-1327.0620203081457,-894.9241127904997)"><path fill="black" stroke="none" paint-order="stroke fill markers" d=" M 1313.449350891479 888.1177780821664 L 1327.0620203081457 894.9241127904997 L 1313.449350891479 901.7304474988331 Z"/></g></g><g><g><rect fill="white" stroke="none" x="956.0171502676312" y="942.8679344759996" width="57.94174446167969" height="21.23576429"/></g><text fill="black" stroke="none" font-family="sans-serif" font-size="11pt" font-style="normal" font-weight="normal" text-decoration="normal" x="958.4674307626312" y="957.5696174459996" text-anchor="start" dominant-baseline="alphabetic" xml:space="preserve">history()</text></g><g><path fill="none" stroke="black" paint-order="fill stroke markers" d=" M 510.56550200774603 964.1036987659996 L 1456.6880091058629 964.1036987659996" stroke-miterlimit="10" stroke-width="1.3612669416666667" stroke-dasharray=""/><g transform="translate(1459.4105429891963,964.1036987659996) translate(-1459.4105429891963,-964.1036987659996)"><path fill="black" stroke="none" paint-order="stroke fill markers" d=" M 1445.7978735725296 957.2973640576663 L 1459.4105429891963 964.1036987659996 L 1445.7978735725296 970.910033474333 Z"/></g></g><g><g><rect fill="white" stroke="none" x="947.5604928579633" y="988.6065037159996" width="74.85505928101563" height="21.23576429"/></g><text fill="black" stroke="none" font-family="sans-serif" font-size="11pt" font-style="normal" font-weight="normal" text-decoration="normal" x="950.0107733529633" y="1003.3081866859995" text-anchor="start" dominant-baseline="alphabetic" xml:space="preserve">historyDao</text></g><g><path fill="none" stroke="black" paint-order="fill stroke markers" d=" M 1459.4105429891963 1009.8422680059996 L 513.2880358910794 1009.8422680059996" stroke-miterlimit="10" stroke-width="1.3612669416666667" stroke-dasharray="6.53408132"/><g transform="translate(510.56550200774603,1009.8422680059996) translate(-510.56550200774603,-1009.8422680059996)"><path fill="black" stroke="none" paint-order="stroke fill markers" d=" M 524.1781714244127 1003.0359332976662 L 510.56550200774603 1009.8422680059996 L 524.1781714244127 1016.6486027143329 Z"/></g></g><g><g><rect fill="white" stroke="none" x="994.2379648626331" y="1034.3450729559997" width="106.42494453492188" height="21.23576429"/></g><text fill="black" stroke="none" font-family="sans-serif" font-size="11pt" font-style="normal" font-weight="normal" text-decoration="normal" x="996.6882453576331" y="1049.0467559259998" text-anchor="start" dominant-baseline="alphabetic" xml:space="preserve">addEntry(entry)</text></g><g><path fill="none" stroke="black" paint-order="fill stroke markers" d=" M 510.56550200774603 1055.5808372459996 L 1581.6128383691089 1055.5808372459996" stroke-miterlimit="10" stroke-width="1.3612669416666667" stroke-dasharray=""/><g transform="translate(1584.3353722524423,1055.5808372459996) translate(-1584.3353722524423,-1055.5808372459996)"><path fill="black" stroke="none" paint-order="stroke fill markers" d=" M 1570.7227028357756 1048.7745025376664 L 1584.3353722524423 1055.5808372459996 L 1570.7227028357756 1062.3871719543329 Z"/></g></g><g><g><rect fill="white" stroke="none" x="1045.000156635094" y="1080.0836421959998" width="4.90056099" height="21.23576429"/></g><text fill="black" stroke="none" font-family="sans-serif" font-size="11pt" font-style="normal" font-weight="normal" text-decoration="normal" x="1047.450437130094" y="1094.785325166" text-anchor="start" dominant-baseline="alphabetic" xml:space="preserve"></text></g><g><path fill="none" stroke="black" paint-order="fill stroke markers" d=" M 1584.3353722524423 1101.3194064859997 L 513.2880358910794 1101.3194064859997" stroke-miterlimit="10" stroke-width="1.3612669416666667" stroke-dasharray="6.53408132"/><g transform="translate(510.56550200774603,1101.3194064859997) translate(-510.56550200774603,-1101.3194064859997)"><path fill="black" stroke="none" paint-order="stroke fill markers" d=" M 524.1781714244127 1094.5130717776665 L 510.56550200774603 1101.3194064859997 L 524.1781714244127 1108.125741194333 Z"/></g></g><g><g><rect fill="white" stroke="none" x="847.1044479269926" y="1125.8222114359999" width="71.45459236207031" height="21.23576429"/></g><text fill="black" stroke="none" font-family="sans-serif" font-size="11pt" font-style="normal" font-weight="normal" text-decoration="normal" x="849.5547284219926" y="1140.523894406" text-anchor="start" dominant-baseline="alphabetic" xml:space="preserve">getValue()</text></g><g><path fill="none" stroke="black" paint-order="fill stroke markers" d=" M 510.56550200774603 1147.0579757259998 L 1252.3754523249763 1147.0579757259998" stroke-miterlimit="10" stroke-width="1.3612669416666667" stroke-dasharray=""/><g transform="translate(1255.0979862083097,1147.0579757259998) translate(-1255.0979862083097,-1147.0579757259998)"><path fill="black" stroke="none" paint-order="stroke fill markers" d=" M 1241.485316791643 1140.2516410176665 L 1255.0979862083097 1147.0579757259998 L 1241.485316791643 1153.864310434333 Z"/></g></g><g><g><rect fill="white" stroke="none" x="870.1953292746489" y="1171.560780676" width="25.27282966675781" height="21.23576429"/></g><text fill="black" stroke="none" font-family="sans-serif" font-size="11pt" font-style="normal" font-weight="normal" text-decoration="normal" x="872.6456097696489" y="1186.262463646" text-anchor="start" dominant-baseline="alphabetic" xml:space="preserve">5.0</text></g><g><path fill="none" stroke="black" paint-order="fill stroke markers" d=" M 1255.0979862083097 1192.7965449659998 L 513.2880358910794 1192.7965449659998" stroke-miterlimit="10" stroke-width="1.3612669416666667" stroke-dasharray="6.53408132"/><g transform="translate(510.56550200774603,1192.7965449659998) translate(-510.56550200774603,-1192.7965449659998)"><path fill="black" stroke="none" paint-order="stroke fill markers" d=" M 524.1781714244127 1185.9902102576666 L 510.56550200774603 1192.7965449659998 L 524.1781714244127 1199.602879674333 Z"/></g></g><g><g><rect fill="white" stroke="none" x="352.70928817052595" y="1217.299349916" width="25.27282966675781" height="21.23576429"/></g><text fill="black" stroke="none" font-family="sans-serif" font-size="11pt" font-style="normal" font-weight="normal" text-decoration="normal" x="355.15956866552597" y="1232.001032886" text-anchor="start" dominant-baseline="alphabetic" xml:space="preserve">5.0</text></g><g><path fill="none" stroke="black" paint-order="fill stroke markers" d=" M 494.23029870774604 1238.535114206 L 239.1836411833971 1238.535114206" stroke-miterlimit="10" stroke-width="1.3612669416666667" stroke-dasharray="6.53408132"/><g transform="translate(236.46110730006376,1238.535114206) translate(-236.46110730006376,-1238.535114206)"><path fill="black" stroke="none" paint-order="stroke fill markers" d=" M 250.07377671673044 1231.7287794976667 L 236.46110730006376 1238.535114206 L 250.07377671673044 1245.3414489143331 Z"/></g></g><g><path fill="none" stroke="black" paint-order="fill stroke markers" d=" M 818.8472364655443 1223.8334312359998 L 848.2506024055442 1253.236797176 M 848.2506024055442 1223.8334312359998 L 818.8472364655443 1253.236797176" stroke-miterlimit="10" stroke-width="2.613632528" stroke-dasharray=""/></g><g><path fill="none" stroke="black" paint-order="fill stroke markers" d=" M 944.81090200625 1223.8334312359998 L 974.21426794625 1253.236797176 M 974.21426794625 1223.8334312359998 L 944.81090200625 1253.236797176" stroke-miterlimit="10" stroke-width="2.613632528" stroke-dasharray=""/></g><g><path fill="none" stroke="black" paint-order="fill stroke markers" d=" M 1131.912688601138 1223.8334312359998 L 1161.316054541138 1253.236797176 M 1161.316054541138 1223.8334312359998 L 1131.912688601138 1253.236797176" stroke-miterlimit="10" stroke-width="2.613632528" stroke-dasharray=""/></g><g><path fill="none" stroke="black" paint-order="fill stroke markers" d=" M 1248.5639048883097 1223.8334312359998 L 1277.96727082831 1253.236797176 M 1277.96727082831 1223.8334312359998 L 1248.5639048883097 1253.236797176" stroke-miterlimit="10" stroke-width="2.613632528" stroke-dasharray=""/></g><g><g><rect fill="white" stroke="none" x="294.91950850744" y="1263.037919156" width="140.8523889929297" height="21.23576429"/></g><text fill="black" stroke="none" font-family="sans-serif" font-size="11pt" font-style="normal" font-weight="normal" text-decoration="normal" x="297.36978900244003" y="1277.7396021260001" text-anchor="start" dominant-baseline="alphabetic" xml:space="preserve">newestHistoryEntry()</text></g><g><path fill="none" stroke="black" paint-order="fill stroke markers" d=" M 236.46110730006376 1284.273683446 L 491.50776482441273 1284.273683446" stroke-miterlimit="10" stroke-width="1.3612669416666667" stroke-dasharray=""/><g transform="translate(494.23029870774604,1284.273683446) translate(-494.23029870774604,-1284.273683446)"><path fill="black" stroke="none" paint-order="stroke fill markers" d=" M 480.61762929107937 1277.4673487376667 L 494.23029870774604 1284.273683446 L 480.61762929107937 1291.0800181543332 Z"/></g></g><g><g><rect fill="white" stroke="none" x="346.4729981924986" y="1308.776488396" width="37.7454096228125" height="21.23576429"/></g><text fill="black" stroke="none" font-family="sans-serif" font-size="11pt" font-style="normal" font-weight="normal" text-decoration="normal" x="348.9232786874986" y="1323.4781713660002" text-anchor="start" dominant-baseline="alphabetic" xml:space="preserve">entry</text></g><g><path fill="none" stroke="black" paint-order="fill stroke markers" d=" M 494.23029870774604 1330.012252686 L 239.1836411833971 1330.012252686" stroke-miterlimit="10" stroke-width="1.3612669416666667" stroke-dasharray="6.53408132"/><g transform="translate(236.46110730006376,1330.012252686) translate(-236.46110730006376,-1330.012252686)"><path fill="black" stroke="none" paint-order="stroke fill markers" d=" M 250.07377671673044 1323.2059179776668 L 236.46110730006376 1330.012252686 L 250.07377671673044 1336.8185873943332 Z"/></g></g><g><g><rect fill="white" stroke="none" x="263.9586995217304" y="1354.515057636" width="181.15733589234375" height="21.23576429"/></g><text fill="black" stroke="none" font-family="sans-serif" font-size="11pt" font-style="normal" font-weight="normal" text-decoration="normal" x="266.4089800167304" y="1369.216740606" text-anchor="start" dominant-baseline="alphabetic" xml:space="preserve">addHistoryEntryRow(entry)</text></g><g><path fill="none" stroke="black" paint-order="fill stroke markers" d=" M 236.46110730006376 1375.750821926 L 309.96952215006377 1375.750821926 L 309.96952215006377 1396.986586216 L 247.3512428333971 1396.986586216" stroke-miterlimit="10" stroke-width="1.3612669416666667" stroke-dasharray=""/><g transform="translate(244.62870895006375,1396.986586216) translate(-244.62870895006375,-1396.986586216)"><path fill="black" stroke="none" paint-order="stroke fill markers" d=" M 258.24137836673043 1390.1802515076668 L 244.62870895006375 1396.986586216 L 258.24137836673043 1403.7929209243332 Z"/></g></g><g><g><rect fill="white" stroke="none" x="263.9586995217304" y="1421.489391166" width="224.55427803101563" height="21.23576429"/></g><text fill="black" stroke="none" font-family="sans-serif" font-size="11pt" font-style="normal" font-weight="normal" text-decoration="normal" x="266.4089800167304" y="1436.191074136" text-anchor="start" dominant-baseline="alphabetic" xml:space="preserve">updateHistoryViewScrollPosition()</text></g><g><path fill="none" stroke="black" paint-order="fill stroke markers" d=" M 236.46110730006376 1442.725155456 L 309.96952215006377 1442.725155456 L 309.96952215006377 1463.960919746 L 247.3512428333971 1463.960919746" stroke-miterlimit="10" stroke-width="1.3612669416666667" stroke-dasharray=""/><g transform="translate(244.62870895006375,1463.960919746) translate(-244.62870895006375,-1463.960919746)"><path fill="black" stroke="none" paint-order="stroke fill markers" d=" M 258.24137836673043 1457.1545850376667 L 244.62870895006375 1463.960919746 L 258.24137836673043 1470.7672544543332 Z"/></g></g><g><g><rect fill="white" stroke="none" x="128.29318721622914" y="1488.463724696" width="4.90056099" height="21.23576429"/></g><text fill="black" stroke="none" font-family="sans-serif" font-size="11pt" font-style="normal" font-weight="normal" text-decoration="normal" x="130.74346771122913" y="1503.1654076660002" text-anchor="start" dominant-baseline="alphabetic" xml:space="preserve"></text></g><g><path fill="none" stroke="black" paint-order="fill stroke markers" d=" M 220.12590400006377 1509.699488986 L 44.083565305727866 1509.699488986" stroke-miterlimit="10" stroke-width="1.3612669416666667" stroke-dasharray="6.53408132"/><g transform="translate(41.36103142239453,1509.699488986) translate(-41.36103142239453,-1509.699488986)"><path fill="black" stroke="none" paint-order="stroke fill markers" d=" M 54.9737008390612 1502.8931542776668 L 41.36103142239453 1509.699488986 L 54.9737008390612 1516.5058236943332 Z"/></g></g></g><g/><g/><g/><g/><g/></g></svg>